<?xml version="1.0" standalone="no"?>
<!DOCTYPE svg PUBLIC "-//W3C//DTD SVG 20010904//EN"
 "http://www.w3.org/TR/2001/REC-SVG-20010904/DTD/svg10.dtd">
<svg version="1.0" xmlns="http://www.w3.org/2000/svg"
 width="358.000000pt" height="358.000000pt" viewBox="0 0 358.000000 358.000000"
 preserveAspectRatio="xMidYMid meet">
<metadata>
Created by potrace 1.11, written by Peter Selinger 2001-2013
</metadata>
<g transform="translate(0.000000,358.000000) scale(0.100000,-0.100000)"
fill="#000000" stroke="none">
<path d="M390 3567 c0 -4 -4 -6 -8 -3 -5 3 -26 0 -48 -6 -21 -7 -42 -13 -46
-14 -5 -1 -11 -3 -15 -4 -5 -1 -11 -2 -15 -1 -5 0 -8 -4 -8 -10 0 -5 -4 -7
-10 -4 -6 3 -10 1 -10 -4 0 -6 -7 -11 -15 -11 -8 0 -15 -4 -15 -8 0 -4 -13
-16 -30 -25 -16 -10 -30 -23 -30 -28 0 -6 -9 -18 -19 -27 -27 -23 -89 -143
-86 -164 2 -10 -2 -18 -8 -18 -5 0 -8 -2 -5 -5 3 -3 0 -29 -7 -59 -15 -63 -18
-1859 -3 -1929 4 -23 10 -51 12 -62 10 -49 15 -65 27 -87 7 -13 12 -29 11 -35
-2 -7 1 -13 6 -13 5 0 15 -13 22 -30 7 -16 17 -30 23 -30 6 0 7 -3 4 -7 -7 -7
89 -103 102 -103 4 0 21 -11 37 -25 20 -18 30 -21 36 -12 4 7 8 7 8 2 0 -17
60 -38 111 -39 26 0 45 -4 43 -8 -3 -5 7 -3 22 2 21 8 29 8 35 -2 6 -10 11
-10 20 -1 9 9 18 9 32 2 13 -8 17 -8 13 -1 -4 6 2 10 14 9 11 -1 20 -6 20 -12
0 -7 3 -7 8 0 4 6 28 10 53 10 l46 0 -26 -35 c-14 -19 -30 -40 -36 -46 -5 -6
-16 -20 -23 -30 -19 -29 -110 -158 -119 -169 -4 -5 -21 -30 -38 -55 -16 -25
-35 -51 -42 -57 -99 -105 -82 -317 25 -309 15 1 33 6 41 10 10 7 12 5 6 -4 -6
-10 -4 -12 11 -6 10 4 24 9 31 10 7 1 20 10 31 19 10 9 25 17 33 17 8 0 25 9
39 20 14 11 31 20 38 20 6 0 12 4 12 9 0 8 19 16 43 19 5 0 15 9 23 19 7 10
14 14 14 8 0 -7 3 -7 8 0 7 10 42 30 107 63 17 9 34 21 38 29 5 7 12 11 18 8
5 -4 9 -1 9 6 0 7 3 9 6 6 4 -4 19 1 33 11 55 36 67 43 84 48 9 4 17 11 17 16
0 5 5 6 10 3 6 -3 10 -1 10 5 0 6 5 8 10 5 6 -3 10 -1 10 4 0 6 18 18 40 27
22 9 40 19 40 23 0 3 14 12 31 20 33 15 154 86 178 104 7 6 20 12 29 13 8 2
19 9 23 16 5 7 9 9 9 3 0 -7 3 -7 8 0 11 15 111 75 126 75 7 0 21 8 32 17 30
27 85 54 95 47 5 -3 9 -1 9 5 0 10 25 9 36 -2 4 -4 14 -2 21 5 11 9 17 9 24
-3 7 -11 9 -11 9 0 0 10 12 12 50 8 32 -4 50 -2 50 5 0 6 10 3 22 -8 12 -10
18 -13 13 -5 -6 11 -2 13 19 7 17 -4 26 -2 26 5 0 8 4 8 13 1 6 -5 22 -8 35
-6 12 2 22 -1 22 -7 0 -6 7 -3 16 5 8 9 21 13 27 9 19 -11 87 -11 88 1 0 6 4
2 9 -9 5 -11 9 -14 9 -7 1 14 91 14 91 0 0 -5 7 -2 16 6 8 9 21 13 27 9 20
-13 47 -13 47 -1 0 6 10 3 22 -8 12 -10 18 -13 13 -5 -6 11 -2 13 19 7 16 -4
26 -2 26 4 0 6 5 8 12 3 20 -12 68 -13 68 -1 0 6 10 3 22 -8 12 -10 18 -13 13
-5 -6 11 -2 13 19 7 17 -4 26 -2 26 5 0 8 4 8 13 1 6 -5 22 -8 35 -6 12 2 22
-1 22 -7 0 -6 7 -3 16 5 8 9 21 13 27 9 19 -11 87 -11 88 1 0 6 4 2 9 -9 5
-11 9 -14 9 -7 1 14 91 14 91 0 0 -5 7 -2 16 7 10 9 21 12 28 7 14 -10 27 -10
45 2 9 6 12 5 8 -1 -4 -6 0 -14 9 -17 10 -4 13 -2 8 6 -5 8 2 9 24 5 20 -4 32
-2 36 6 3 8 5 8 5 -2 1 -11 4 -11 16 -1 11 9 15 9 15 1 0 -9 5 -9 20 -1 11 6
20 8 20 5 0 -3 8 -1 18 4 11 6 32 12 47 15 16 3 32 11 37 18 4 7 8 9 8 4 0 -5
6 -3 13 3 8 6 17 8 20 4 4 -3 7 1 7 11 0 9 4 15 9 12 7 -5 37 23 103 95 10 10
16 19 13 19 -3 0 2 15 12 33 9 17 18 34 18 37 1 3 4 19 8 35 13 55 18 80 23
110 6 40 5 1912 -1 1950 -19 120 -47 199 -95 265 -32 44 -71 79 -88 80 -7 0
-10 5 -7 10 3 6 -3 11 -14 11 -30 2 -34 3 -51 14 -8 5 -19 10 -25 11 -29 5
-41 10 -47 19 -5 6 -8 5 -8 -3 0 -8 -5 -10 -12 -5 -17 11 -2828 11 -2828 0z
m67 -174 c-7 -11 377 -8 393 2 8 5 11 4 7 -2 -8 -12 54 -10 74 3 7 4 10 3 6
-2 -6 -11 375 -10 393 1 8 5 11 4 7 -2 -8 -12 54 -10 74 3 7 4 10 3 6 -2 -6
-11 375 -10 393 1 8 5 11 4 7 -2 -8 -12 54 -10 74 3 7 4 10 3 6 -2 -6 -11 375
-10 393 1 8 5 11 4 7 -2 -8 -12 54 -10 74 3 7 4 10 3 6 -2 -6 -11 375 -10 393
1 8 5 11 4 7 -2 -8 -12 54 -10 74 3 7 4 10 3 6 -2 -3 -5 71 -9 179 -8 146 1
186 -2 196 -13 7 -9 13 -10 18 -4 8 14 79 -53 112 -105 30 -47 59 -124 65
-174 2 -19 5 -109 7 -200 1 -91 5 -171 9 -177 5 -7 5 -13 0 -13 -10 0 -10
-771 0 -787 5 -7 5 -13 0 -13 -12 0 -10 -463 2 -472 7 -5 7 -8 0 -8 -6 0 -11
-15 -11 -32 -2 -86 -15 -152 -42 -210 -29 -62 -85 -132 -96 -120 -3 3 -6 1 -6
-5 0 -9 -34 -24 -44 -20 -1 1 -9 -3 -17 -10 -21 -17 -72 -35 -64 -23 3 6 1 10
-4 10 -6 0 -11 -4 -11 -8 0 -10 -196 -10 -205 0 -4 4 -16 3 -26 -3 -13 -6 -25
-6 -38 1 -12 6 -22 6 -26 1 -5 -10 -37 -7 -55 4 -6 3 -10 2 -10 -4 0 -5 -9 -9
-20 -8 -11 1 -20 5 -20 10 0 4 -6 5 -12 0 -17 -10 -29 -11 -56 -1 -14 5 -21 4
-17 -1 3 -6 -4 -9 -15 -8 -11 1 -20 5 -20 10 0 6 -5 6 -12 0 -14 -10 -76 -10
-103 1 -9 3 -13 2 -10 -4 3 -6 2 -10 -4 -10 -5 0 -13 5 -16 10 -4 7 -14 6 -28
-2 -12 -6 -24 -10 -27 -8 -21 12 -50 18 -45 10 3 -6 2 -10 -4 -10 -5 0 -13 5
-16 10 -4 7 -14 6 -28 -2 -12 -6 -24 -10 -27 -8 -19 10 -50 18 -46 11 3 -4 -8
-8 -24 -7 -17 1 -30 6 -30 11 0 7 -3 7 -8 0 -9 -13 -32 -18 -32 -7 0 5 -7 9
-15 9 -8 0 -12 -4 -9 -9 3 -4 1 -8 -5 -8 -5 0 -13 5 -16 10 -4 7 -14 6 -28 -1
-16 -9 -22 -9 -25 0 -2 6 -8 11 -13 11 -6 0 -8 -3 -6 -7 3 -5 -6 -9 -19 -9
-13 -1 -24 2 -24 7 0 6 -7 6 -17 1 -10 -5 -27 -6 -38 -2 -11 4 -28 3 -39 -2
-10 -6 -21 -6 -25 -2 -8 11 -41 14 -41 5 0 -4 -7 -8 -15 -8 -8 0 -15 4 -15 9
0 5 -10 3 -22 -3 -17 -9 -23 -9 -26 1 -3 9 -6 9 -13 -1 -7 -12 -9 -12 -9 0 0
11 -3 11 -17 0 -15 -12 -16 -12 -8 1 8 13 7 13 -8 1 -13 -10 -17 -10 -17 -1 0
9 -4 9 -17 -1 -9 -8 -17 -12 -19 -9 -2 3 -14 -4 -26 -15 -13 -10 -25 -18 -27
-16 -2 1 -8 -4 -13 -13 -5 -9 -13 -14 -17 -11 -5 2 -22 -8 -38 -23 -16 -16
-33 -27 -39 -25 -5 2 -20 -6 -32 -17 -11 -11 -26 -20 -32 -20 -5 0 -10 -4 -10
-9 0 -8 -19 -16 -43 -19 -5 0 -17 -10 -26 -21 -10 -12 -23 -21 -28 -21 -5 0
-24 -11 -43 -25 -18 -13 -37 -22 -42 -19 -4 3 -11 -2 -14 -10 -3 -9 -12 -16
-19 -16 -7 0 -18 -7 -25 -15 -7 -8 -16 -12 -21 -9 -5 3 -9 0 -9 -7 0 -7 -3
-10 -6 -6 -3 3 -18 -5 -32 -18 -14 -13 -29 -22 -33 -20 -4 3 -12 -2 -19 -10
-7 -8 -19 -15 -26 -15 -8 0 -14 -4 -14 -9 0 -5 -16 -15 -35 -22 -19 -7 -35
-17 -35 -21 0 -4 -7 -8 -15 -8 -8 0 -15 -4 -15 -10 0 -5 -8 -10 -17 -10 -10
-1 -33 -14 -52 -30 -19 -16 -38 -27 -43 -24 -4 3 -8 0 -8 -5 0 -6 -7 -11 -15
-11 -9 0 -18 -6 -21 -14 -3 -9 -13 -12 -22 -9 -9 4 -14 3 -10 -2 4 -4 -7 -15
-25 -25 -18 -10 -49 -27 -70 -38 -21 -11 -44 -25 -52 -32 -8 -6 -16 -7 -19 -2
-3 6 0 12 7 15 6 2 30 31 52 63 22 33 42 61 45 64 14 14 50 70 50 79 0 6 6 14
13 18 6 4 34 42 62 83 27 41 53 77 57 78 5 2 8 8 8 14 0 6 14 27 30 48 17 21
30 42 30 47 0 4 11 20 25 35 14 15 25 30 25 33 0 4 11 21 24 38 18 23 22 37
16 47 -7 11 -10 11 -10 2 0 -9 -5 -10 -17 -3 -12 6 -24 6 -37 -1 -15 -8 -21
-8 -24 1 -2 6 -8 11 -13 11 -6 0 -8 -3 -6 -8 3 -4 -6 -8 -19 -8 -13 -1 -24 2
-24 7 0 5 -5 9 -11 9 -5 0 -7 -5 -3 -11 4 -7 -1 -7 -16 1 -15 8 -20 8 -16 1 4
-6 3 -11 -3 -11 -5 0 -13 5 -16 10 -4 7 -14 6 -28 -1 -16 -9 -22 -9 -25 0 -2
6 -8 11 -13 11 -6 0 -8 -3 -6 -8 3 -4 -6 -8 -19 -8 -13 -1 -24 2 -24 7 0 6
-10 5 -21 -2 -16 -8 -20 -8 -14 1 6 9 2 9 -14 1 -14 -8 -21 -8 -21 -1 0 7 -7
7 -21 -1 -17 -8 -23 -8 -29 1 -5 8 -13 9 -21 4 -18 -11 -38 -11 -67 -2 -15 5
-21 4 -17 -2 3 -6 2 -10 -4 -10 -5 0 -12 4 -15 8 -6 10 -36 9 -54 -2 -6 -4
-12 -2 -12 3 0 6 -8 11 -18 11 -10 0 -28 9 -39 19 -12 11 -23 18 -25 16 -7 -8
-64 59 -85 100 -27 52 -55 125 -47 125 4 0 2 6 -4 13 -11 12 -12 1814 -1 1847
2 8 9 22 14 30 5 8 11 23 12 33 8 51 122 183 149 173 9 -3 12 -1 9 4 -6 10 -4
11 58 15 21 1 41 5 44 9 9 8 15 8 10 -1z"/>
<path d="M1562 2949 c0 -110 -3 -204 -7 -207 -4 -4 -91 -8 -193 -9 -103 -1
-190 -2 -195 -2 -4 -1 -6 -94 -5 -208 l3 -208 192 0 c105 0 194 -3 198 -7 4
-3 7 -281 7 -617 l0 -611 216 2 217 3 0 615 0 615 195 1 c107 1 200 2 207 3 8
1 12 57 13 206 1 190 -1 205 -17 206 -10 0 -102 1 -205 1 -104 1 -189 4 -189
7 -1 3 -2 96 -3 206 l-2 200 -216 3 -216 2 0 -201z"/>
</g>
</svg>
